<?xml version="1.0" encoding="utf-8"?>
<!-- Generator: Adobe Illustrator 27.0.0, SVG Export Plug-In . SVG Version: 6.00 Build 0)  -->
<svg version="1.1" id="Layer_1" xmlns="http://www.w3.org/2000/svg" xmlns:xlink="http://www.w3.org/1999/xlink" x="0px" y="0px"
	 viewBox="0 0 520 520" style="enable-background:new 0 0 520 520;" xml:space="preserve">
<style type="text/css">
	.st0{fill:#FFFFFF;}
	.st1{fill:#EAEAEA;}
	.st2{fill:#444444;}
	.st3{fill:#252B3C;}
	.st4{fill:url(#SVGID_1_);}
	.st5{fill:url(#SVGID_00000143600240577534989890000007729269888764172939_);}
	.st6{fill:url(#SVGID_00000158709475533172494450000000867665100151124627_);}
	.st7{fill:url(#SVGID_00000080190367655701684080000005481915826169690766_);}
	.st8{fill:url(#SVGID_00000093175397500306067540000008929779290267091610_);}
	.st9{fill:url(#SVGID_00000141452745586162981570000017647508911547685292_);}
</style>
<g>
	<path class="st0" d="M110,90.5h300c10.8,0,19.5,8.7,19.5,19.5v300c0,10.8-8.7,19.5-19.5,19.5H110c-10.8,0-19.5-8.7-19.5-19.5V110
		C90.5,99.2,99.2,90.5,110,90.5z"/>
	<path class="st1" d="M410,430H110c-11,0-20-9-20-20V110c0-11,9-20,20-20h300c11,0,20,9,20,20v300C430,421,421,430,410,430z M110,91
		c-10.5,0-19,8.5-19,19v300c0,10.5,8.5,19,19,19h300c10.5,0,19-8.5,19-19V110c0-10.5-8.5-19-19-19H110z"/>
</g>
<g>
	<path class="st2" d="M148.6,380.3c2.3,0,3.8,1.2,3.8,3.8v4.9H151v-0.9c-0.6,0.7-1.5,1-2.7,1c-2.1,0-3.5-1.2-3.5-3
		c0-1.7,1.5-3,3.5-3c1.1,0,2.1,0.4,2.7,1v-0.2c0-1.8-0.9-2.7-2.6-2.7c-1.1,0-2.2,0.4-2.8,0.9l-0.5-0.9
		C145.8,380.8,147.1,380.3,148.6,380.3z M148.6,388.2c1.4,0,2.4-0.8,2.4-2c0-1.2-1-2-2.4-2c-1.4,0-2.4,0.8-2.4,2
		C146.2,387.3,147.2,388.2,148.6,388.2z M154.5,389v-11.7h1.4V389H154.5z M158.3,389v-11.7h1.4V389H158.3z M170.1,387.8h0.8v1.2
		h-1.2c-1.8,0-2.5-0.9-2.5-2.5v-4.9H166v-1.1h1.2v-1.9l1.4-0.3v2.2h2.1v1.1h-2.1v4.5C168.5,387.2,168.9,387.8,170.1,387.8z
		 M176.9,380.4c2.1,0,3.4,1.5,3.4,4v4.7h-1.4v-4.7c0-1.7-1-2.8-2.5-2.8c-1.5,0-2.5,1.1-2.5,2.8v4.7h-1.4v-11.7h1.4v4.7
		C174.5,381,175.5,380.4,176.9,380.4z M183.7,382.8c0.4-1.4,1.8-2.4,3.5-2.4v1.3c-1.7-0.1-3.4,1.1-3.4,3.4v3.9h-1.4v-8.5h1.2
		L183.7,382.8L183.7,382.8z M192,380.3c2.9,0,4.4,2.5,4.1,5h-7.1c0.2,1.6,1.4,2.6,2.9,2.6c1,0,1.8-0.4,2.4-1.2l1,0.7
		c-0.8,1.1-1.9,1.7-3.4,1.7c-2.5,0-4.3-1.9-4.3-4.4C187.7,382.2,189.5,380.3,192,380.3z M192,381.5c-1.6,0-2.8,1.1-3,2.8h5.8
		C194.8,382.9,193.8,381.5,192,381.5z M201.2,380.3c2.3,0,3.8,1.2,3.8,3.8v4.9h-1.4v-0.9c-0.6,0.7-1.5,1-2.7,1c-2.1,0-3.5-1.2-3.5-3
		c0-1.7,1.5-3,3.5-3c1.1,0,2.1,0.4,2.7,1v-0.2c0-1.8-0.9-2.7-2.6-2.7c-1.1,0-2.2,0.4-2.8,0.9l-0.5-0.9
		C198.4,380.8,199.7,380.3,201.2,380.3z M201.2,388.2c1.4,0,2.4-0.8,2.4-2c0-1.2-1-2-2.4-2s-2.4,0.8-2.4,2
		C198.8,387.3,199.8,388.2,201.2,388.2z M210.4,387.8h0.8v1.2H210c-1.8,0-2.5-0.9-2.5-2.5v-4.9h-1.2v-1.1h1.2v-1.9l1.4-0.3v2.2h2.1
		v1.1h-2.1v4.5C208.8,387.2,209.2,387.8,210.4,387.8z M218.9,382.3l-1.2,0.5c-0.3-0.8-1.1-1.4-2.2-1.4c-1,0-1.8,0.4-1.8,1.2
		c0,0.9,1.1,1.2,2.4,1.5c1.7,0.4,3,1,3,2.6c0,1.7-1.7,2.4-3.4,2.4c-1.8,0-3.2-0.7-3.6-2.2l1.1-0.5c0.4,1.2,1.4,1.6,2.5,1.6
		c1,0,2-0.4,2-1.3c0-0.9-0.9-1.2-2.1-1.5c-1.3-0.3-3.3-0.8-3.3-2.5c0-1.7,1.6-2.4,3.2-2.4C217.3,380.3,218.5,381.1,218.9,382.3z
		 M226.2,379.1c-0.5,0-0.9-0.4-0.9-0.9c0-0.5,0.4-0.9,0.9-0.9c0.5,0,0.9,0.4,0.9,0.9C227.1,378.7,226.7,379.1,226.2,379.1z
		 M225.5,389v-8.5h1.4v8.5H225.5z M235.9,377.3h1.4V389h-1.4v-1.8c-0.7,1.2-1.8,1.9-3.3,1.9c-2.3,0-3.9-1.9-3.9-4.4
		c0-2.5,1.7-4.4,3.9-4.4c1.5,0,2.6,0.7,3.3,1.9V377.3z M232.9,387.9c1.7,0,3-1.4,3-3.2c0-1.8-1.3-3.2-3-3.2c-1.6,0-2.8,1.4-2.8,3.2
		C230.1,386.6,231.3,387.9,232.9,387.9z M243.4,380.3c2.9,0,4.4,2.5,4.1,5h-7.1c0.2,1.6,1.4,2.6,2.9,2.6c1,0,1.8-0.4,2.4-1.2l1,0.7
		c-0.8,1.1-1.9,1.7-3.4,1.7c-2.5,0-4.3-1.9-4.3-4.4C239.1,382.2,240.9,380.3,243.4,380.3z M243.3,381.5c-1.6,0-2.8,1.1-3,2.8h5.8
		C246.1,382.9,245.2,381.5,243.3,381.5z M253.7,380.3c2.1,0,3.4,1.4,3.4,3.9v4.8h-1.4l0-4.7c0-1.7-1-2.8-2.5-2.8
		c-1.5,0-2.5,1.1-2.5,2.8v4.7h-1.4v-8.5h1.4v1.5C251.3,380.9,252.4,380.3,253.7,380.3z M262.5,387.8h0.8v1.2H262
		c-1.8,0-2.5-0.9-2.5-2.5v-4.9h-1.2v-1.1h1.2v-1.9l1.4-0.3v2.2h2.1v1.1h-2.1v4.5C260.9,387.2,261.3,387.8,262.5,387.8z M265.6,379.1
		c-0.5,0-0.9-0.4-0.9-0.9c0-0.5,0.4-0.9,0.9-0.9c0.5,0,0.9,0.4,0.9,0.9C266.5,378.7,266.1,379.1,265.6,379.1z M264.9,389v-8.5h1.4
		v8.5H264.9z M275,380.5v8.5h-1.4v-7.5h-3.1v7.5h-1.4v-7.5h-1.3v-1.1h1.3v-0.4c0-3.5,3.1-4.5,5.7-2.3l-0.7,0.9
		c-1.8-1.5-3.5-0.9-3.5,1.4v0.4H275z M281.1,380.3c2.9,0,4.4,2.5,4.1,5h-7.1c0.2,1.6,1.4,2.6,2.9,2.6c1,0,1.8-0.4,2.4-1.2l1,0.7
		c-0.8,1.1-1.9,1.7-3.4,1.7c-2.5,0-4.3-1.9-4.3-4.4C276.8,382.2,278.6,380.3,281.1,380.3z M281.1,381.5c-1.6,0-2.8,1.1-3,2.8h5.8
		C283.9,382.9,282.9,381.5,281.1,381.5z M293.9,377.3h1.4V389h-1.4v-1.8c-0.7,1.2-1.8,1.9-3.3,1.9c-2.3,0-3.9-1.9-3.9-4.4
		c0-2.5,1.7-4.4,3.9-4.4c1.5,0,2.6,0.7,3.3,1.9V377.3z M290.9,387.9c1.7,0,3-1.4,3-3.2c0-1.8-1.3-3.2-3-3.2c-1.6,0-2.8,1.4-2.8,3.2
		C288,386.6,289.2,387.9,290.9,387.9z M305.6,380.3c2.3,0,3.8,1.2,3.8,3.8v4.9h-1.4v-0.9c-0.6,0.7-1.5,1-2.7,1c-2.1,0-3.5-1.2-3.5-3
		c0-1.7,1.5-3,3.5-3c1.1,0,2.1,0.4,2.7,1v-0.2c0-1.8-0.9-2.7-2.6-2.7c-1.1,0-2.2,0.4-2.8,0.9l-0.5-0.9
		C302.8,380.8,304,380.3,305.6,380.3z M305.5,388.2c1.4,0,2.4-0.8,2.4-2c0-1.2-1-2-2.4-2c-1.4,0-2.4,0.8-2.4,2
		C303.1,387.3,304.1,388.2,305.5,388.2z M315.8,380.3c2.1,0,3.4,1.4,3.4,3.9v4.8h-1.4l0-4.7c0-1.7-1-2.8-2.5-2.8
		c-1.5,0-2.5,1.1-2.5,2.8v4.7h-1.4v-8.5h1.4v1.5C313.4,380.9,314.5,380.3,315.8,380.3z M328,377.3h1.4V389H328v-1.8
		c-0.7,1.2-1.8,1.9-3.3,1.9c-2.3,0-3.9-1.9-3.9-4.4c0-2.5,1.7-4.4,3.9-4.4c1.5,0,2.6,0.7,3.3,1.9V377.3z M325,387.9
		c1.7,0,3-1.4,3-3.2c0-1.8-1.3-3.2-3-3.2c-1.6,0-2.8,1.4-2.8,3.2C322.2,386.6,323.4,387.9,325,387.9z M337.7,382.8
		c0.4-1.4,1.8-2.4,3.5-2.4v1.3c-1.7-0.1-3.4,1.1-3.4,3.4v3.9h-1.4v-8.5h1.2L337.7,382.8L337.7,382.8z M345.8,380.3
		c2.3,0,3.8,1.2,3.8,3.8v4.9h-1.4v-0.9c-0.6,0.7-1.5,1-2.7,1c-2.1,0-3.5-1.2-3.5-3c0-1.7,1.5-3,3.5-3c1.1,0,2.1,0.4,2.7,1v-0.2
		c0-1.8-0.9-2.7-2.6-2.7c-1.1,0-2.2,0.4-2.8,0.9l-0.5-0.9C343,380.8,344.3,380.3,345.8,380.3z M345.8,388.2c1.4,0,2.4-0.8,2.4-2
		c0-1.2-1-2-2.4-2c-1.4,0-2.4,0.8-2.4,2C343.3,387.3,344.3,388.2,345.8,388.2z M355,387.8h0.8v1.2h-1.2c-1.8,0-2.5-0.9-2.5-2.5v-4.9
		h-1.2v-1.1h1.2v-1.9l1.4-0.3v2.2h2.1v1.1h-2.1v4.5C353.4,387.2,353.8,387.8,355,387.8z M360.5,380.3c2.9,0,4.4,2.5,4.1,5h-7.1
		c0.2,1.6,1.4,2.6,2.9,2.6c1,0,1.8-0.4,2.4-1.2l1,0.7c-0.8,1.1-1.9,1.7-3.4,1.7c-2.5,0-4.3-1.9-4.3-4.4
		C356.3,382.2,358.1,380.3,360.5,380.3z M360.5,381.5c-1.6,0-2.8,1.1-3,2.8h5.8C363.3,382.9,362.3,381.5,360.5,381.5z M373.3,377.3
		h1.4V389h-1.4v-1.8c-0.7,1.2-1.8,1.9-3.3,1.9c-2.3,0-3.9-1.9-3.9-4.4c0-2.5,1.7-4.4,3.9-4.4c1.5,0,2.6,0.7,3.3,1.9V377.3z
		 M370.3,387.9c1.7,0,3-1.4,3-3.2c0-1.8-1.3-3.2-3-3.2c-1.6,0-2.8,1.4-2.8,3.2C367.5,386.6,368.7,387.9,370.3,387.9z"/>
</g>
<g>
	<path class="st3" d="M172.5,343.5h-17c-5.5,0-10-4.5-10-10s4.5-10,10-10h17c5.5,0,10,4.5,10,10S178,343.5,172.5,343.5z"/>
</g>
<g>
	<path class="st3" d="M218,308h-63c-5.5,0-10-4.5-10-10s4.5-10,10-10h63c5.5,0,10,4.5,10,10S223.5,308,218,308z"/>
</g>
<g>
	<path class="st3" d="M225.5,272h-70c-5.5,0-10-4.5-10-10c0-5.5,4.5-10,10-10h70c5.5,0,10,4.5,10,10C235.5,267.5,231,272,225.5,272z
		"/>
</g>
<g>
	<path class="st3" d="M217.5,236h-62c-5.5,0-10-4.5-10-10s4.5-10,10-10h62c5.5,0,10,4.5,10,10S223,236,217.5,236z"/>
</g>
<g>
	<path class="st3" d="M231,200h-76c-5.5,0-10-4.5-10-10s4.5-10,10-10h76c5.5,0,10,4.5,10,10S236.5,200,231,200z"/>
</g>
<g>
	<path class="st3" d="M210,164h-53c-5.5,0-10-4.5-10-10s4.5-10,10-10h53c5.5,0,10,4.5,10,10S215.5,164,210,164z"/>
</g>
<g>
	
		<linearGradient id="SVGID_1_" gradientUnits="userSpaceOnUse" x1="276.68" y1="188.5" x2="115.553" y2="188.5" gradientTransform="matrix(1 0 0 -1 0 522)">
		<stop  offset="0" style="stop-color:#FF2D00"/>
		<stop  offset="0.5071" style="stop-color:#C5C6CE"/>
		<stop  offset="1" style="stop-color:#F9F9FC"/>
	</linearGradient>
	<path class="st4" d="M277.5,343.5h-112c-5.5,0-10-4.5-10-10s4.5-10,10-10h112c5.5,0,10,4.5,10,10S283,343.5,277.5,343.5z"/>
</g>
<g>
	
		<linearGradient id="SVGID_00000070090600381093281000000015558991095317263037_" gradientUnits="userSpaceOnUse" x1="252.23" y1="224" x2="196.079" y2="224" gradientTransform="matrix(1 0 0 -1 0 522)">
		<stop  offset="0" style="stop-color:#FF2D00"/>
		<stop  offset="0.5071" style="stop-color:#C5C6CE"/>
		<stop  offset="1" style="stop-color:#F9F9FC"/>
	</linearGradient>
	<path style="fill:url(#SVGID_00000070090600381093281000000015558991095317263037_);" d="M246,308h-26c-5.5,0-10-4.5-10-10
		s4.5-10,10-10h26c5.5,0,10,4.5,10,10S251.5,308,246,308z"/>
</g>
<g>
	
		<linearGradient id="SVGID_00000182518612147459261120000009447967354756500105_" gradientUnits="userSpaceOnUse" x1="325.68" y1="260" x2="164.553" y2="260" gradientTransform="matrix(1 0 0 -1 0 522)">
		<stop  offset="0" style="stop-color:#FF2D00"/>
		<stop  offset="0.5071" style="stop-color:#C5C6CE"/>
		<stop  offset="1" style="stop-color:#F9F9FC"/>
	</linearGradient>
	<path style="fill:url(#SVGID_00000182518612147459261120000009447967354756500105_);" d="M326.5,272h-112c-5.5,0-10-4.5-10-10
		c0-5.5,4.5-10,10-10h112c5.5,0,10,4.5,10,10C336.5,267.5,332,272,326.5,272z"/>
</g>
<g>
	
		<linearGradient id="SVGID_00000129176204287650807080000001647469166896820098_" gradientUnits="userSpaceOnUse" x1="337.877" y1="296" x2="149.895" y2="296" gradientTransform="matrix(1 0 0 -1 0 522)">
		<stop  offset="0" style="stop-color:#FF2D00"/>
		<stop  offset="0.5071" style="stop-color:#C5C6CE"/>
		<stop  offset="1" style="stop-color:#F9F9FC"/>
	</linearGradient>
	<path style="fill:url(#SVGID_00000129176204287650807080000001647469166896820098_);" d="M340.5,236h-134c-5.5,0-10-4.5-10-10
		s4.5-10,10-10h134c5.5,0,10,4.5,10,10S346,236,340.5,236z"/>
</g>
<g>
	
		<linearGradient id="SVGID_00000054238435372219652480000001984417437060505740_" gradientUnits="userSpaceOnUse" x1="319.246" y1="332" x2="173.987" y2="332" gradientTransform="matrix(1 0 0 -1 0 522)">
		<stop  offset="0" style="stop-color:#FF2D00"/>
		<stop  offset="0.5071" style="stop-color:#C5C6CE"/>
		<stop  offset="1" style="stop-color:#F9F9FC"/>
	</linearGradient>
	<path style="fill:url(#SVGID_00000054238435372219652480000001984417437060505740_);" d="M319,200h-99c-5.5,0-10-4.5-10-10
		s4.5-10,10-10h99c5.5,0,10,4.5,10,10S324.5,200,319,200z"/>
</g>
<g>
	
		<linearGradient id="SVGID_00000001626136323694323100000006318459167115719604_" gradientUnits="userSpaceOnUse" x1="264.016" y1="368" x2="174.908" y2="368" gradientTransform="matrix(1 0 0 -1 0 522)">
		<stop  offset="0" style="stop-color:#FF2D00"/>
		<stop  offset="0.5071" style="stop-color:#C5C6CE"/>
		<stop  offset="1" style="stop-color:#F9F9FC"/>
	</linearGradient>
	<path style="fill:url(#SVGID_00000001626136323694323100000006318459167115719604_);" d="M260,164h-53c-5.5,0-10-4.5-10-10
		s4.5-10,10-10h53c5.5,0,10,4.5,10,10S265.5,164,260,164z"/>
</g>
</svg>
