<?xml version="1.0" encoding="utf-8"?>
<!-- Generator: Adobe Illustrator 27.0.0, SVG Export Plug-In . SVG Version: 6.00 Build 0)  -->
<svg version="1.1" id="Layer_1" xmlns="http://www.w3.org/2000/svg" xmlns:xlink="http://www.w3.org/1999/xlink" x="0px" y="0px"
	 viewBox="0 0 520 520" style="enable-background:new 0 0 520 520;" xml:space="preserve">
<style type="text/css">
	.st0{fill:#FFFFFF;}
	.st1{fill:#EAEAEA;}
	.st2{fill:#444444;}
	.st3{fill:url(#SVGID_1_);}
</style>
<g>
	<path class="st0" d="M110,90.5h300c10.8,0,19.5,8.7,19.5,19.5v300c0,10.8-8.7,19.5-19.5,19.5H110c-10.8,0-19.5-8.7-19.5-19.5V110
		C90.5,99.2,99.2,90.5,110,90.5z"/>
	<path class="st1" d="M410,430H110c-11,0-20-9-20-20V110c0-11,9-20,20-20h300c11,0,20,9,20,20v300C430,421,421,430,410,430z M110,91
		c-10.5,0-19,8.5-19,19v300c0,10.5,8.5,19,19,19h300c10.5,0,19-8.5,19-19V110c0-10.5-8.5-19-19-19H110z"/>
</g>
<g>
	<path class="st2" d="M67,299.8H55.3v-1.4H67V299.8z M58.3,292.4c0-2.9,2.5-4.4,5-4.1v7.1c1.6-0.2,2.6-1.4,2.6-2.9
		c0-1-0.4-1.8-1.2-2.4l0.7-1c1.1,0.8,1.7,1.9,1.7,3.4c0,2.5-1.9,4.3-4.4,4.3S58.3,294.8,58.3,292.4z M59.5,292.4
		c0,1.6,1.1,2.8,2.8,3v-5.8C60.9,289.6,59.5,290.6,59.5,292.4z M58.5,281.3v-1.4h0.1l8.5,3.4v1.1l-8.5,3.3h-0.1v-1.4l6.5-2.5
		L58.5,281.3z M58.3,275c0-2.9,2.5-4.4,5-4.1v7.1c1.6-0.2,2.6-1.4,2.6-2.9c0-1-0.4-1.8-1.2-2.4l0.7-1c1.1,0.8,1.7,1.9,1.7,3.4
		c0,2.5-1.9,4.3-4.4,4.3S58.3,277.5,58.3,275z M59.5,275c0,1.6,1.1,2.8,2.8,3v-5.8C60.9,272.2,59.5,273.2,59.5,275z M67,269H55.3
		v-1.4H67V269z M67.2,256.9c0,2.5-1.8,4.3-4.5,4.3s-4.5-1.8-4.5-4.3c0-2.5,1.8-4.3,4.5-4.3S67.2,254.3,67.2,256.9z M65.9,256.9
		c0-1.7-1.4-3-3.2-3s-3.2,1.3-3.2,3c0,1.7,1.4,3,3.2,3S65.9,258.6,65.9,256.9z M56.7,245.9c-1.1,1.4-0.8,3,1.3,3h0.4v-2.2h1.1v2.2
		H67v1.4h-7.5v1.3h-1.1v-1.3h-0.6c-3.1,0-3.6-3-2-4.9L56.7,245.9z M60.8,239.2c-1.4-0.4-2.4-1.8-2.4-3.5h1.3
		c-0.1,1.7,1.1,3.4,3.4,3.4H67v1.4h-8.5v-1.2L60.8,239.2L60.8,239.2z M57.1,233.4c0,0.5-0.4,0.9-0.9,0.9c-0.5,0-0.9-0.4-0.9-0.9
		c0-0.5,0.4-0.9,0.9-0.9C56.7,232.4,57.1,232.8,57.1,233.4z M67,234h-8.5v-1.4H67V234z M60.3,224.2l0.5,1.2
		c-0.8,0.3-1.4,1.1-1.4,2.2c0,1,0.4,1.8,1.2,1.8c0.9,0,1.2-1.1,1.5-2.4c0.4-1.7,1-3,2.6-3c1.7,0,2.4,1.7,2.4,3.4
		c0,1.8-0.7,3.2-2.2,3.6l-0.5-1.1c1.2-0.4,1.6-1.4,1.6-2.5c0-1-0.4-2-1.3-2c-0.9,0-1.2,0.9-1.5,2.1c-0.3,1.3-0.8,3.3-2.5,3.3
		c-1.7,0-2.4-1.6-2.4-3.2C58.3,225.8,59.1,224.6,60.3,224.2z M62.3,219.6l4.7-4.2h0v1.6l-4.3,3.9H67v1.4H55.3v-1.4h6.6l-3.5-3.7
		v-1.7h0L62.3,219.6z"/>
</g>
<g>
	<rect x="62" y="315" class="st1" width="1" height="143"/>
	<polygon class="st1" points="67,109 63,91.2 63,90 62.7,90 62.5,89 62.3,90 62,90 62,91.2 58,109 62,109 62,202 63,202 63,109 	"/>
</g>
<g>
	
		<linearGradient id="SVGID_1_" gradientUnits="userSpaceOnUse" x1="445.8217" y1="353.8974" x2="-312.5559" y2="12.8389" gradientTransform="matrix(1 0 0 -1 0 522)">
		<stop  offset="0" style="stop-color:#FF2D00"/>
		<stop  offset="0.5071" style="stop-color:#C5C6CE"/>
		<stop  offset="1" style="stop-color:#F9F9FC"/>
	</linearGradient>
	<path class="st3" d="M12,468c-4.9,0-9.2-3.6-9.9-8.6c-0.8-5.5,3-10.5,8.4-11.3c31.9-4.7,69.7-15.6,106.6-30.9
		c45.1-18.7,87.8-43,127.2-72.3c46.4-34.5,86.6-75.2,119.6-120.8c38-52.6,66.5-112.1,84.5-176.8c1.5-5.3,7-8.4,12.3-6.9
		c5.3,1.5,8.4,7,6.9,12.3c-18.7,67-48.1,128.6-87.6,183.2c-34.1,47.3-75.8,89.4-123.8,125.1C145.6,443.4,42.4,463.7,13.4,467.9
		C13,468,12.5,468,12,468z"/>
</g>
<g>
	<rect x="63" y="457" class="st1" width="99" height="1"/>
	<polygon class="st1" points="429,457.3 429,457 427.8,457 410,453 410,457 358,457 358,458 410,458 410,462 427.8,458 429,458 
		429,457.7 430,457.5 	"/>
</g>
<g>
	<path class="st2" d="M182.5,453.3c2.1,0,3.4,1.4,3.4,3.9v4.8h-1.4l0-4.7c0-1.7-1-2.8-2.5-2.8c-1.5,0-2.5,1.1-2.5,2.8v4.7h-1.4v-8.5
		h1.4v1.5C180.1,453.9,181.1,453.3,182.5,453.3z M193.9,453.5h1.4l0,5.1c0,2.1-1.5,3.6-3.7,3.6c-2.2,0-3.7-1.5-3.7-3.6v-5.1h1.4v5
		c0,1.4,0.9,2.4,2.3,2.4c1.4,0,2.3-1,2.3-2.4V453.5z M207.1,453.3c1.8,0,3,1.3,3,3.3v5.4h-1.4v-5.2c0-1.4-0.9-2.3-2.1-2.3
		c-1.2,0-2.1,0.9-2.1,2.3v5.2h-1.4v-5.2c0-1.4-0.9-2.3-2.1-2.3c-1.2,0-2.1,0.9-2.1,2.3v5.2h-1.4v-8.5h1.4v1.3
		c0.5-0.9,1.4-1.4,2.6-1.4c1.3,0,2.3,0.7,2.6,1.8C204.7,454,205.7,453.3,207.1,453.3z M216.9,453.3c2.3,0,3.9,1.9,3.9,4.4
		c0,2.5-1.7,4.4-3.9,4.4c-1.4,0-2.6-0.7-3.2-1.9v1.7h-1.4v-11.7h1.4v4.8C214.3,454,215.5,453.3,216.9,453.3z M216.7,460.9
		c1.7,0,2.9-1.4,2.9-3.2c0-1.8-1.2-3.2-2.9-3.2c-1.7,0-3,1.4-3,3.2C213.7,459.6,215,460.9,216.7,460.9z M226.5,453.3
		c2.9,0,4.4,2.5,4.1,5h-7.1c0.2,1.6,1.4,2.6,2.9,2.6c1,0,1.8-0.4,2.4-1.2l1,0.7c-0.8,1.1-1.9,1.7-3.4,1.7c-2.5,0-4.3-1.9-4.3-4.4
		C222.3,455.2,224.1,453.3,226.5,453.3z M226.5,454.5c-1.6,0-2.8,1.1-3,2.8h5.8C229.3,455.9,228.3,454.5,226.5,454.5z M233.8,455.8
		c0.4-1.4,1.8-2.4,3.5-2.4v1.3c-1.7-0.1-3.4,1.1-3.4,3.4v3.9h-1.4v-8.5h1.2L233.8,455.8L233.8,455.8z M247.4,462.2
		c-2.5,0-4.3-1.9-4.3-4.5c0-2.6,1.8-4.5,4.3-4.5c2.5,0,4.3,1.9,4.3,4.5C251.8,460.3,250,462.2,247.4,462.2z M247.4,460.9
		c1.7,0,3-1.4,3-3.2c0-1.9-1.3-3.2-3-3.2c-1.7,0-3,1.4-3,3.2C244.5,459.6,245.7,460.9,247.4,460.9z M258.4,451.7
		c-1.4-1.1-3-0.8-3,1.3v0.4h2.2v1.1h-2.2v7.5H254v-7.5h-1.3v-1.1h1.3v-0.6c0-3.1,3-3.6,4.9-2L258.4,451.7z M271.3,453.4l-1.2,0.6
		c-0.4-1.1-1.4-1.8-2.9-1.8c-1.3,0-2.3,0.4-2.3,1.6c0,1.2,1.3,1.6,3.1,2.1c2.1,0.5,3.6,1.2,3.6,3.2c0,2.2-2.1,3.1-4.1,3.1
		c-2.1,0-3.8-0.9-4.3-2.8l1.2-0.6c0.5,1.5,1.7,2.2,3.2,2.2c1.3,0,2.5-0.5,2.5-1.7s-1.1-1.7-2.8-2.2c-1.6-0.5-3.9-1-3.9-3.2
		c0-2.1,1.9-2.9,3.9-2.9C269.4,450.9,270.8,452,271.3,453.4z M276.8,453.3c2.3,0,3.8,1.2,3.8,3.8v4.9h-1.4v-0.9
		c-0.6,0.7-1.5,1-2.7,1c-2.1,0-3.5-1.2-3.5-3c0-1.7,1.5-3,3.5-3c1.1,0,2.1,0.4,2.7,1v-0.2c0-1.8-0.9-2.7-2.6-2.7
		c-1.1,0-2.2,0.4-2.8,0.9l-0.5-0.9C274,453.8,275.3,453.3,276.8,453.3z M276.8,461.2c1.4,0,2.4-0.8,2.4-2c0-1.2-1-2-2.4-2
		c-1.4,0-2.4,0.8-2.4,2C274.4,460.3,275.4,461.2,276.8,461.2z M286,453.3c2.3,0,3.8,1.2,3.8,3.8v4.9h-1.4v-0.9c-0.6,0.7-1.5,1-2.7,1
		c-2.1,0-3.5-1.2-3.5-3c0-1.7,1.5-3,3.5-3c1.1,0,2.1,0.4,2.7,1v-0.2c0-1.8-0.9-2.7-2.6-2.7c-1.1,0-2.2,0.4-2.8,0.9l-0.5-0.9
		C283.2,453.8,284.5,453.3,286,453.3z M286,461.2c1.4,0,2.4-0.8,2.4-2c0-1.2-1-2-2.4-2c-1.4,0-2.4,0.8-2.4,2
		C283.5,460.3,284.5,461.2,286,461.2z M299.5,453.4l-1.2,0.6c-0.5-1.1-1.4-1.8-2.9-1.8c-1.3,0-2.3,0.4-2.3,1.6
		c0,1.2,1.3,1.6,3.1,2.1c2.1,0.5,3.6,1.2,3.6,3.2c0,2.2-2.1,3.1-4.1,3.1c-2.1,0-3.8-0.9-4.3-2.8l1.2-0.6c0.5,1.5,1.7,2.2,3.2,2.2
		c1.3,0,2.5-0.5,2.5-1.7s-1.1-1.7-2.8-2.2c-1.6-0.5-3.9-1-3.9-3.2c0-2.1,1.9-2.9,3.9-2.9C297.6,450.9,298.9,452,299.5,453.4z
		 M312.3,453.5h1.4l0,5.1c0,2.1-1.5,3.6-3.7,3.6c-2.2,0-3.7-1.5-3.7-3.6v-5.1h1.4v5c0,1.4,0.9,2.4,2.3,2.4c1.4,0,2.3-1,2.3-2.4
		V453.5z M322.1,455.3l-1.1,0.5c-0.3-0.8-1.1-1.4-2.2-1.4c-1,0-1.8,0.4-1.8,1.2c0,0.9,1.1,1.2,2.4,1.5c1.7,0.4,3,1,3,2.6
		c0,1.7-1.7,2.4-3.4,2.4c-1.8,0-3.2-0.7-3.6-2.2l1.1-0.5c0.4,1.2,1.4,1.6,2.5,1.6c1,0,2-0.4,2-1.3c0-0.9-0.9-1.2-2.1-1.5
		c-1.3-0.3-3.3-0.8-3.3-2.5c0-1.7,1.6-2.4,3.2-2.4C320.5,453.3,321.6,454.1,322.1,455.3z M327.7,453.3c2.9,0,4.4,2.5,4.1,5h-7.1
		c0.2,1.6,1.4,2.6,2.9,2.6c1,0,1.8-0.4,2.4-1.2l1,0.7c-0.8,1.1-1.9,1.7-3.4,1.7c-2.5,0-4.3-1.9-4.3-4.4
		C323.5,455.2,325.3,453.3,327.7,453.3z M327.7,454.5c-1.6,0-2.8,1.1-3,2.8h5.8C330.5,455.9,329.5,454.5,327.7,454.5z M340.5,450.3
		h1.4V462h-1.4v-1.8c-0.7,1.2-1.8,1.9-3.3,1.9c-2.3,0-3.9-1.9-3.9-4.4c0-2.5,1.7-4.4,3.9-4.4c1.5,0,2.6,0.7,3.3,1.9V450.3z
		 M337.5,460.9c1.7,0,3-1.4,3-3.2c0-1.8-1.3-3.2-3-3.2c-1.6,0-2.8,1.4-2.8,3.2C334.7,459.6,335.9,460.9,337.5,460.9z"/>
</g>
</svg>
