<?xml version="1.0" encoding="utf-8"?>
<!-- Generator: Adobe Illustrator 27.0.0, SVG Export Plug-In . SVG Version: 6.00 Build 0)  -->
<svg version="1.1" id="Layer_1" xmlns="http://www.w3.org/2000/svg" xmlns:xlink="http://www.w3.org/1999/xlink" x="0px" y="0px"
	 viewBox="0 0 520 520" style="enable-background:new 0 0 520 520;" xml:space="preserve">
<style type="text/css">
	.st0{fill:#FFFFFF;}
	.st1{fill:#EAEAEA;}
	.st2{fill:#444444;}
	.st3{fill:url(#SVGID_1_);}
	.st4{fill:url(#SVGID_00000037677544047963695900000010625448839400093619_);}
	.st5{fill:#DADADA;}
	.st6{fill:#FF2D00;}
</style>
<g>
	<path class="st0" d="M110,90.5h300c10.8,0,19.5,8.7,19.5,19.5v300c0,10.8-8.7,19.5-19.5,19.5H110c-10.8,0-19.5-8.7-19.5-19.5V110
		C90.5,99.2,99.2,90.5,110,90.5z"/>
	<path class="st1" d="M410,430H110c-11,0-20-9-20-20V110c0-11,9-20,20-20h300c11,0,20,9,20,20v300C430,421,421,430,410,430z M110,91
		c-10.5,0-19,8.5-19,19v300c0,10.5,8.5,19,19,19h300c10.5,0,19-8.5,19-19V110c0-10.5-8.5-19-19-19H110z"/>
</g>
<g>
	<path class="st0" d="M132,130.5h256c0.8,0,1.5,0.7,1.5,1.5v256c0,0.8-0.7,1.5-1.5,1.5H132c-0.8,0-1.5-0.7-1.5-1.5V132
		C130.5,131.2,131.2,130.5,132,130.5z"/>
	<path class="st1" d="M388,390H132c-1.1,0-2-0.9-2-2V132c0-1.1,0.9-2,2-2h256c1.1,0,2,0.9,2,2v256C390,389.1,389.1,390,388,390z
		 M132,131c-0.6,0-1,0.4-1,1v256c0,0.6,0.4,1,1,1h256c0.6,0,1-0.4,1-1V132c0-0.6-0.4-1-1-1H132z"/>
</g>
<g>
	<path class="st2" d="M67,299.8H55.3v-1.4H67V299.8z M58.3,292.4c0-2.9,2.5-4.4,5-4.1v7.1c1.6-0.2,2.6-1.4,2.6-2.9
		c0-1-0.4-1.8-1.2-2.4l0.7-1c1.1,0.8,1.7,1.9,1.7,3.4c0,2.5-1.9,4.3-4.4,4.3S58.3,294.8,58.3,292.4z M59.5,292.4
		c0,1.6,1.1,2.8,2.8,3v-5.8C60.9,289.6,59.5,290.6,59.5,292.4z M58.5,281.3v-1.4h0.1l8.5,3.4v1.1l-8.5,3.3h-0.1v-1.4l6.5-2.5
		L58.5,281.3z M58.3,275c0-2.9,2.5-4.4,5-4.1v7.1c1.6-0.2,2.6-1.4,2.6-2.9c0-1-0.4-1.8-1.2-2.4l0.7-1c1.1,0.8,1.7,1.9,1.7,3.4
		c0,2.5-1.9,4.3-4.4,4.3S58.3,277.5,58.3,275z M59.5,275c0,1.6,1.1,2.8,2.8,3v-5.8C60.9,272.2,59.5,273.2,59.5,275z M67,269H55.3
		v-1.4H67V269z M67.2,256.9c0,2.5-1.8,4.3-4.5,4.3s-4.5-1.8-4.5-4.3c0-2.5,1.8-4.3,4.5-4.3S67.2,254.3,67.2,256.9z M65.9,256.9
		c0-1.7-1.4-3-3.2-3s-3.2,1.3-3.2,3c0,1.7,1.4,3,3.2,3S65.9,258.6,65.9,256.9z M56.7,245.9c-1.1,1.4-0.8,3,1.3,3h0.4v-2.2h1.1v2.2
		H67v1.4h-7.5v1.3h-1.1v-1.3h-0.6c-3.1,0-3.6-3-2-4.9L56.7,245.9z M60.8,239.2c-1.4-0.4-2.4-1.8-2.4-3.5h1.3
		c-0.1,1.7,1.1,3.4,3.4,3.4H67v1.4h-8.5v-1.2L60.8,239.2L60.8,239.2z M57.1,233.4c0,0.5-0.4,0.9-0.9,0.9c-0.5,0-0.9-0.4-0.9-0.9
		c0-0.5,0.4-0.9,0.9-0.9C56.7,232.4,57.1,232.8,57.1,233.4z M67,234h-8.5v-1.4H67V234z M60.3,224.2l0.5,1.2
		c-0.8,0.3-1.4,1.1-1.4,2.2c0,1,0.4,1.8,1.2,1.8c0.9,0,1.2-1.1,1.5-2.4c0.4-1.7,1-3,2.6-3c1.7,0,2.4,1.7,2.4,3.4
		c0,1.8-0.7,3.2-2.2,3.6l-0.5-1.1c1.2-0.4,1.6-1.4,1.6-2.5c0-1-0.4-2-1.3-2c-0.9,0-1.2,0.9-1.5,2.1c-0.3,1.3-0.8,3.3-2.5,3.3
		c-1.7,0-2.4-1.6-2.4-3.2C58.3,225.8,59.1,224.6,60.3,224.2z M62.3,219.6l4.7-4.2h0v1.6l-4.3,3.9H67v1.4H55.3v-1.4h6.6l-3.5-3.7
		v-1.7h0L62.3,219.6z"/>
</g>
<g>
	<rect x="62" y="315" class="st1" width="1" height="74.5"/>
	<polygon class="st1" points="67,109 63,91.2 63,90 62.7,90 62.5,89 62.3,90 62,90 62,91.2 58,109 62,109 62,202 63,202 63,109 	"/>
</g>
<g>
	<linearGradient id="SVGID_1_" gradientUnits="userSpaceOnUse" x1="62.5" y1="385.2969" x2="62.5" y2="455.3808">
		<stop  offset="0" style="stop-color:#EAEAEA"/>
		<stop  offset="1" style="stop-color:#F9F9FC"/>
	</linearGradient>
	<rect x="62" y="383.5" class="st3" width="1" height="74.5"/>
</g>
<g>
	
		<linearGradient id="SVGID_00000073713651618115215480000014754351826074936996_" gradientUnits="userSpaceOnUse" x1="97.3622" y1="384.29" x2="97.3622" y2="448.7296" gradientTransform="matrix(6.123234e-17 1 -1 6.123234e-17 513.1378 360.1378)">
		<stop  offset="0" style="stop-color:#EAEAEA"/>
		<stop  offset="1" style="stop-color:#F9F9FC"/>
	</linearGradient>
	<rect x="62" y="457" style="fill:url(#SVGID_00000073713651618115215480000014754351826074936996_);" width="68.5" height="1"/>
</g>
<g>
	<path class="st2" d="M203.3,453.3c2.3,0,3.9,1.9,3.9,4.4c0,2.5-1.7,4.4-3.9,4.4c-1.4,0-2.6-0.7-3.2-1.9v1.7h-1.4v-11.7h1.4v4.8
		C200.7,454,201.9,453.3,203.3,453.3z M203,460.9c1.7,0,2.9-1.4,2.9-3.2c0-1.8-1.2-3.2-2.9-3.2c-1.7,0-3,1.4-3,3.2
		C200.1,459.6,201.3,460.9,203,460.9z M215,453.5h1.4l0,5.1c0,2.1-1.5,3.6-3.7,3.6c-2.2,0-3.7-1.5-3.7-3.6v-5.1h1.4v5
		c0,1.4,0.9,2.4,2.3,2.4c1.4,0,2.3-1,2.3-2.4V453.5z M224.8,455.3l-1.1,0.5c-0.3-0.8-1.1-1.4-2.2-1.4c-1,0-1.8,0.4-1.8,1.2
		c0,0.9,1.1,1.2,2.4,1.5c1.7,0.4,3,1,3,2.6c0,1.7-1.7,2.4-3.4,2.4c-1.8,0-3.2-0.7-3.6-2.2l1.1-0.5c0.4,1.2,1.4,1.6,2.5,1.6
		c1,0,2-0.4,2-1.3c0-0.9-0.9-1.2-2.1-1.5c-1.3-0.3-3.3-0.8-3.3-2.5c0-1.7,1.6-2.4,3.2-2.4C223.2,453.3,224.4,454.1,224.8,455.3z
		 M227.4,452.1c-0.5,0-0.9-0.4-0.9-0.9c0-0.5,0.4-0.9,0.9-0.9c0.5,0,0.9,0.4,0.9,0.9C228.4,451.7,227.9,452.1,227.4,452.1z
		 M226.7,462v-8.5h1.4v8.5H226.7z M234.8,453.3c2.1,0,3.4,1.4,3.4,3.9v4.8h-1.4l0-4.7c0-1.7-1-2.8-2.5-2.8c-1.5,0-2.5,1.1-2.5,2.8
		v4.7h-1.4v-8.5h1.4v1.5C232.4,453.9,233.5,453.3,234.8,453.3z M244.1,453.3c2.9,0,4.4,2.5,4.1,5h-7.1c0.2,1.6,1.4,2.6,2.9,2.6
		c1,0,1.8-0.4,2.4-1.2l1,0.7c-0.8,1.1-1.9,1.7-3.4,1.7c-2.5,0-4.3-1.9-4.3-4.4C239.8,455.2,241.6,453.3,244.1,453.3z M244.1,454.5
		c-1.6,0-2.8,1.1-3,2.8h5.8C246.8,455.9,245.9,454.5,244.1,454.5z M256.1,455.3l-1.2,0.5c-0.3-0.8-1.1-1.4-2.2-1.4
		c-1,0-1.8,0.4-1.8,1.2c0,0.9,1.1,1.2,2.4,1.5c1.7,0.4,3,1,3,2.6c0,1.7-1.7,2.4-3.4,2.4c-1.8,0-3.2-0.7-3.6-2.2l1.1-0.5
		c0.4,1.2,1.4,1.6,2.5,1.6c1,0,2-0.4,2-1.3c0-0.9-0.9-1.2-2.1-1.5c-1.3-0.3-3.3-0.8-3.3-2.5c0-1.7,1.6-2.4,3.2-2.4
		C254.5,453.3,255.6,454.1,256.1,455.3z M264.1,455.3l-1.2,0.5c-0.3-0.8-1.1-1.4-2.2-1.4c-1,0-1.8,0.4-1.8,1.2
		c0,0.9,1.1,1.2,2.4,1.5c1.7,0.4,3,1,3,2.6c0,1.7-1.7,2.4-3.4,2.4c-1.8,0-3.2-0.7-3.6-2.2l1.1-0.5c0.4,1.2,1.4,1.6,2.5,1.6
		c1,0,2-0.4,2-1.3c0-0.9-0.9-1.2-2.1-1.5c-1.3-0.3-3.3-0.8-3.3-2.5c0-1.7,1.6-2.4,3.2-2.4C262.5,453.3,263.7,454.1,264.1,455.3z
		 M271.4,452.1c-0.5,0-0.9-0.4-0.9-0.9c0-0.5,0.4-0.9,0.9-0.9c0.5,0,0.9,0.4,0.9,0.9C272.3,451.7,271.9,452.1,271.4,452.1z
		 M270.7,462v-8.5h1.4v8.5H270.7z M283.9,453.3c1.8,0,3,1.3,3,3.3v5.4h-1.4v-5.2c0-1.4-0.9-2.3-2.1-2.3c-1.2,0-2.1,0.9-2.1,2.3v5.2
		H280v-5.2c0-1.4-0.9-2.3-2.1-2.3c-1.2,0-2.1,0.9-2.1,2.3v5.2h-1.4v-8.5h1.4v1.3c0.5-0.9,1.4-1.4,2.6-1.4c1.3,0,2.3,0.7,2.6,1.8
		C281.5,454,282.6,453.3,283.9,453.3z M293.8,453.3c2.3,0,3.9,1.9,3.9,4.4c0,2.5-1.7,4.4-3.9,4.4c-1.4,0-2.6-0.7-3.2-1.9v4.9h-1.4
		v-11.7h1.4v1.7C291.2,454,292.4,453.3,293.8,453.3z M293.5,460.9c1.7,0,2.9-1.4,2.9-3.2c0-1.8-1.2-3.2-2.9-3.2c-1.7,0-3,1.4-3,3.2
		C290.5,459.6,291.8,460.9,293.5,460.9z M302.8,453.3c2.3,0,3.8,1.2,3.8,3.8v4.9h-1.4v-0.9c-0.6,0.7-1.5,1-2.7,1
		c-2.1,0-3.5-1.2-3.5-3c0-1.7,1.5-3,3.5-3c1.1,0,2.1,0.4,2.7,1v-0.2c0-1.8-0.9-2.7-2.6-2.7c-1.1,0-2.2,0.4-2.8,0.9l-0.5-0.9
		C300,453.8,301.2,453.3,302.8,453.3z M302.7,461.2c1.4,0,2.4-0.8,2.4-2c0-1.2-1-2-2.4-2c-1.4,0-2.4,0.8-2.4,2
		C300.3,460.3,301.3,461.2,302.7,461.2z M308.1,457.7c0-2.6,1.8-4.4,4.3-4.4c1.7,0,3.1,0.9,3.7,2.3l-1.1,0.6
		c-0.5-0.9-1.4-1.6-2.6-1.6c-1.7,0-3,1.3-3,3.2c0,1.9,1.2,3.2,3,3.2c1.2,0,2.1-0.7,2.6-1.6l1.1,0.6c-0.6,1.3-2,2.3-3.7,2.3
		C309.9,462.2,308.1,460.3,308.1,457.7z M321.3,460.8h0.8v1.2h-1.2c-1.8,0-2.5-0.9-2.5-2.5v-4.9h-1.2v-1.1h1.2v-1.9l1.4-0.3v2.2h2.1
		v1.1h-2.1v4.5C319.7,460.2,320.1,460.8,321.3,460.8z"/>
</g>
<rect x="130.5" y="457" class="st1" width="55.5" height="1"/>
<polygon class="st1" points="429,457.7 430,457.5 429,457.3 429,457 427.8,457 410,453 410,457 334,457 334,458 410,458 410,462 
	427.8,458 429,458 "/>
<g>
	<path class="st2" d="M203.3,453.3c2.3,0,3.9,1.9,3.9,4.4c0,2.5-1.7,4.4-3.9,4.4c-1.4,0-2.6-0.7-3.2-1.9v1.7h-1.4v-11.7h1.4v4.8
		C200.7,454,201.9,453.3,203.3,453.3z M203,460.9c1.7,0,2.9-1.4,2.9-3.2c0-1.8-1.2-3.2-2.9-3.2c-1.7,0-3,1.4-3,3.2
		C200.1,459.6,201.3,460.9,203,460.9z M215,453.5h1.4l0,5.1c0,2.1-1.5,3.6-3.7,3.6c-2.2,0-3.7-1.5-3.7-3.6v-5.1h1.4v5
		c0,1.4,0.9,2.4,2.3,2.4c1.4,0,2.3-1,2.3-2.4V453.5z M224.8,455.3l-1.1,0.5c-0.3-0.8-1.1-1.4-2.2-1.4c-1,0-1.8,0.4-1.8,1.2
		c0,0.9,1.1,1.2,2.4,1.5c1.7,0.4,3,1,3,2.6c0,1.7-1.7,2.4-3.4,2.4c-1.8,0-3.2-0.7-3.6-2.2l1.1-0.5c0.4,1.2,1.4,1.6,2.5,1.6
		c1,0,2-0.4,2-1.3c0-0.9-0.9-1.2-2.1-1.5c-1.3-0.3-3.3-0.8-3.3-2.5c0-1.7,1.6-2.4,3.2-2.4C223.2,453.3,224.4,454.1,224.8,455.3z
		 M227.4,452.1c-0.5,0-0.9-0.4-0.9-0.9c0-0.5,0.4-0.9,0.9-0.9c0.5,0,0.9,0.4,0.9,0.9C228.4,451.7,227.9,452.1,227.4,452.1z
		 M226.7,462v-8.5h1.4v8.5H226.7z M234.8,453.3c2.1,0,3.4,1.4,3.4,3.9v4.8h-1.4l0-4.7c0-1.7-1-2.8-2.5-2.8c-1.5,0-2.5,1.1-2.5,2.8
		v4.7h-1.4v-8.5h1.4v1.5C232.4,453.9,233.5,453.3,234.8,453.3z M244.1,453.3c2.9,0,4.4,2.5,4.1,5h-7.1c0.2,1.6,1.4,2.6,2.9,2.6
		c1,0,1.8-0.4,2.4-1.2l1,0.7c-0.8,1.1-1.9,1.7-3.4,1.7c-2.5,0-4.3-1.9-4.3-4.4C239.8,455.2,241.6,453.3,244.1,453.3z M244.1,454.5
		c-1.6,0-2.8,1.1-3,2.8h5.8C246.8,455.9,245.9,454.5,244.1,454.5z M256.1,455.3l-1.2,0.5c-0.3-0.8-1.1-1.4-2.2-1.4
		c-1,0-1.8,0.4-1.8,1.2c0,0.9,1.1,1.2,2.4,1.5c1.7,0.4,3,1,3,2.6c0,1.7-1.7,2.4-3.4,2.4c-1.8,0-3.2-0.7-3.6-2.2l1.1-0.5
		c0.4,1.2,1.4,1.6,2.5,1.6c1,0,2-0.4,2-1.3c0-0.9-0.9-1.2-2.1-1.5c-1.3-0.3-3.3-0.8-3.3-2.5c0-1.7,1.6-2.4,3.2-2.4
		C254.5,453.3,255.6,454.1,256.1,455.3z M264.1,455.3l-1.2,0.5c-0.3-0.8-1.1-1.4-2.2-1.4c-1,0-1.8,0.4-1.8,1.2
		c0,0.9,1.1,1.2,2.4,1.5c1.7,0.4,3,1,3,2.6c0,1.7-1.7,2.4-3.4,2.4c-1.8,0-3.2-0.7-3.6-2.2l1.1-0.5c0.4,1.2,1.4,1.6,2.5,1.6
		c1,0,2-0.4,2-1.3c0-0.9-0.9-1.2-2.1-1.5c-1.3-0.3-3.3-0.8-3.3-2.5c0-1.7,1.6-2.4,3.2-2.4C262.5,453.3,263.7,454.1,264.1,455.3z
		 M271.4,452.1c-0.5,0-0.9-0.4-0.9-0.9c0-0.5,0.4-0.9,0.9-0.9c0.5,0,0.9,0.4,0.9,0.9C272.3,451.7,271.9,452.1,271.4,452.1z
		 M270.7,462v-8.5h1.4v8.5H270.7z M283.9,453.3c1.8,0,3,1.3,3,3.3v5.4h-1.4v-5.2c0-1.4-0.9-2.3-2.1-2.3c-1.2,0-2.1,0.9-2.1,2.3v5.2
		H280v-5.2c0-1.4-0.9-2.3-2.1-2.3c-1.2,0-2.1,0.9-2.1,2.3v5.2h-1.4v-8.5h1.4v1.3c0.5-0.9,1.4-1.4,2.6-1.4c1.3,0,2.3,0.7,2.6,1.8
		C281.5,454,282.6,453.3,283.9,453.3z M293.8,453.3c2.3,0,3.9,1.9,3.9,4.4c0,2.5-1.7,4.4-3.9,4.4c-1.4,0-2.6-0.7-3.2-1.9v4.9h-1.4
		v-11.7h1.4v1.7C291.2,454,292.4,453.3,293.8,453.3z M293.5,460.9c1.7,0,2.9-1.4,2.9-3.2c0-1.8-1.2-3.2-2.9-3.2c-1.7,0-3,1.4-3,3.2
		C290.5,459.6,291.8,460.9,293.5,460.9z M302.8,453.3c2.3,0,3.8,1.2,3.8,3.8v4.9h-1.4v-0.9c-0.6,0.7-1.5,1-2.7,1
		c-2.1,0-3.5-1.2-3.5-3c0-1.7,1.5-3,3.5-3c1.1,0,2.1,0.4,2.7,1v-0.2c0-1.8-0.9-2.7-2.6-2.7c-1.1,0-2.2,0.4-2.8,0.9l-0.5-0.9
		C300,453.8,301.2,453.3,302.8,453.3z M302.7,461.2c1.4,0,2.4-0.8,2.4-2c0-1.2-1-2-2.4-2c-1.4,0-2.4,0.8-2.4,2
		C300.3,460.3,301.3,461.2,302.7,461.2z M308.1,457.7c0-2.6,1.8-4.4,4.3-4.4c1.7,0,3.1,0.9,3.7,2.3l-1.1,0.6
		c-0.5-0.9-1.4-1.6-2.6-1.6c-1.7,0-3,1.3-3,3.2c0,1.9,1.2,3.2,3,3.2c1.2,0,2.1-0.7,2.6-1.6l1.1,0.6c-0.6,1.3-2,2.3-3.7,2.3
		C309.9,462.2,308.1,460.3,308.1,457.7z M321.3,460.8h0.8v1.2h-1.2c-1.8,0-2.5-0.9-2.5-2.5v-4.9h-1.2v-1.1h1.2v-1.9l1.4-0.3v2.2h2.1
		v1.1h-2.1v4.5C319.7,460.2,320.1,460.8,321.3,460.8z"/>
</g>
<g>
	<rect x="131" y="157" class="st1" width="258" height="1"/>
</g>
<g>
	<rect x="131" y="183" class="st1" width="258" height="1"/>
</g>
<g>
	<rect x="131" y="209" class="st1" width="258" height="1"/>
</g>
<g>
	<rect x="131" y="235" class="st1" width="258" height="1"/>
</g>
<g>
	<rect x="131" y="261" class="st1" width="258" height="1"/>
</g>
<g>
	<rect x="131" y="287" class="st1" width="258" height="1"/>
</g>
<g>
	<rect x="131" y="313" class="st1" width="258" height="1"/>
</g>
<g>
	<rect x="131" y="339" class="st1" width="258" height="1"/>
</g>
<g>
	<rect x="131" y="365" class="st1" width="258" height="1"/>
</g>
<g>
	<rect x="155" y="131" class="st1" width="1" height="258"/>
</g>
<g>
	<rect x="181" y="131" class="st1" width="1" height="258"/>
</g>
<g>
	<rect x="207" y="131" class="st1" width="1" height="258"/>
</g>
<g>
	<rect x="233" y="131" class="st1" width="1" height="258"/>
</g>
<g>
	<rect x="259" y="131" class="st1" width="1" height="258"/>
</g>
<g>
	<rect x="285" y="131" class="st1" width="1" height="258"/>
</g>
<g>
	<rect x="311" y="131" class="st1" width="1" height="258"/>
</g>
<g>
	<rect x="337" y="131" class="st1" width="1" height="258"/>
</g>
<g>
	<rect x="363" y="131" class="st1" width="1" height="258"/>
</g>
<g>
	<circle class="st5" cx="259" cy="261" r="5"/>
</g>
<g>
	<circle class="st5" cx="131" cy="365" r="5"/>
</g>
<g>
	<circle class="st5" cx="156" cy="313" r="5"/>
</g>
<g>
	<circle class="st5" cx="208" cy="287" r="5"/>
</g>
<g>
	<circle class="st5" cx="234" cy="209" r="5"/>
</g>
<g>
	<circle class="st6" cx="286" cy="184" r="12"/>
	<path class="st1" d="M286,201c-9.4,0-17-7.6-17-17s7.6-17,17-17s17,7.6,17,17S295.4,201,286,201z M286,177c-3.9,0-7,3.1-7,7
		s3.1,7,7,7s7-3.1,7-7S289.9,177,286,177z"/>
</g>
<g>
	<circle class="st5" cx="259" cy="365" r="5"/>
</g>
<g>
	<circle class="st5" cx="312" cy="365" r="5"/>
</g>
<g>
	<circle class="st5" cx="389" cy="388" r="5"/>
</g>
<g>
	<circle class="st6" cx="338" cy="288" r="12"/>
	<path class="st1" d="M338,305c-9.4,0-17-7.6-17-17s7.6-17,17-17s17,7.6,17,17S347.4,305,338,305z M338,281c-3.9,0-7,3.1-7,7
		s3.1,7,7,7s7-3.1,7-7S341.9,281,338,281z"/>
</g>
</svg>
