<?xml version="1.0" encoding="utf-8"?>
<!-- Generator: Adobe Illustrator 27.0.0, SVG Export Plug-In . SVG Version: 6.00 Build 0)  -->
<svg version="1.1" id="Layer_1" xmlns="http://www.w3.org/2000/svg" xmlns:xlink="http://www.w3.org/1999/xlink" x="0px" y="0px"
	 viewBox="0 0 520 520" style="enable-background:new 0 0 520 520;" xml:space="preserve">
<style type="text/css">
	.st0{fill:#FFFFFF;}
	.st1{fill:#EAEAEA;}
	.st2{fill:#444444;}
	.st3{fill:#252B3C;}
	.st4{fill:url(#SVGID_1_);}
	.st5{fill:url(#SVGID_00000005950272239103916430000016906626937377625492_);}
	.st6{fill:url(#SVGID_00000124126891615064381260000014480989486505330110_);}
	.st7{fill:url(#SVGID_00000024716226620885056420000016350843300733667761_);}
	.st8{fill:url(#SVGID_00000152955533445377302020000016514416368443870129_);}
	.st9{fill:url(#SVGID_00000063619490019461715560000005337548133994996396_);}
	.st10{clip-path:url(#SVGID_00000165913133230508008440000010353861851923971505_);}
	.st11{fill:#FF800D;}
	.st12{clip-path:url(#SVGID_00000121996868719745411450000015500707724488478886_);}
	.st13{clip-path:url(#SVGID_00000077304041052644451010000015689530229552084368_);}
	.st14{fill:#5DCA1B;}
</style>
<g>
	<path class="st0" d="M110,90.5h300c10.8,0,19.5,8.7,19.5,19.5v300c0,10.8-8.7,19.5-19.5,19.5H110c-10.8,0-19.5-8.7-19.5-19.5V110
		C90.5,99.2,99.2,90.5,110,90.5z"/>
	<path class="st1" d="M410,430H110c-11,0-20-9-20-20V110c0-11,9-20,20-20h300c11,0,20,9,20,20v300C430,421,421,430,410,430z M110,91
		c-10.5,0-19,8.5-19,19v300c0,10.5,8.5,19,19,19h300c10.5,0,19-8.5,19-19V110c0-10.5-8.5-19-19-19H110z"/>
</g>
<g>
	<path class="st2" d="M154.1,379.1c-0.5,0-0.9-0.4-0.9-0.9c0-0.5,0.4-0.9,0.9-0.9c0.5,0,0.9,0.4,0.9,0.9
		C155,378.7,154.6,379.1,154.1,379.1z M153.4,389v-8.5h1.4v8.5H153.4z M161.5,380.3c2.1,0,3.4,1.4,3.4,3.9v4.8h-1.4l0-4.7
		c0-1.7-1-2.8-2.5-2.8c-1.5,0-2.5,1.1-2.5,2.8v4.7h-1.4v-8.5h1.4v1.5C159.1,380.9,160.1,380.3,161.5,380.3z M171.9,378.7
		c-1.4-1.1-3-0.8-3,1.3v0.4h2.2v1.1h-2.2v7.5h-1.4v-7.5h-1.3v-1.1h1.3v-0.6c0-3.1,3-3.6,4.9-2L171.9,378.7z M176.2,389.2
		c-2.5,0-4.3-1.9-4.3-4.5c0-2.6,1.8-4.5,4.3-4.5c2.5,0,4.3,1.9,4.3,4.5C180.5,387.3,178.7,389.2,176.2,389.2z M176.2,387.9
		c1.7,0,3-1.4,3-3.2c0-1.9-1.3-3.2-3-3.2c-1.7,0-3,1.4-3,3.2C173.2,386.6,174.5,387.9,176.2,387.9z M183.7,382.8
		c0.4-1.4,1.8-2.4,3.5-2.4v1.3c-1.7-0.1-3.4,1.1-3.4,3.4v3.9h-1.4v-8.5h1.2L183.7,382.8L183.7,382.8z M198.3,380.3
		c1.8,0,3,1.3,3,3.3v5.4H200v-5.2c0-1.4-0.9-2.3-2.1-2.3c-1.2,0-2.1,0.9-2.1,2.3v5.2h-1.4v-5.2c0-1.4-0.9-2.3-2.1-2.3
		c-1.2,0-2.1,0.9-2.1,2.3v5.2h-1.4v-8.5h1.4v1.3c0.5-0.9,1.4-1.4,2.6-1.4c1.3,0,2.3,0.7,2.6,1.8C195.9,381,197,380.3,198.3,380.3z
		 M207.3,380.3c2.9,0,4.4,2.5,4.1,5h-7.1c0.2,1.6,1.4,2.6,2.9,2.6c1,0,1.8-0.4,2.4-1.2l1,0.7c-0.8,1.1-1.9,1.7-3.4,1.7
		c-2.5,0-4.3-1.9-4.3-4.4C203,382.2,204.8,380.3,207.3,380.3z M207.3,381.5c-1.6,0-2.8,1.1-3,2.8h5.8
		C210,382.9,209.1,381.5,207.3,381.5z M220,377.3h1.4V389H220v-1.8c-0.7,1.2-1.8,1.9-3.3,1.9c-2.3,0-3.9-1.9-3.9-4.4
		c0-2.5,1.7-4.4,3.9-4.4c1.5,0,2.6,0.7,3.3,1.9V377.3z M217.1,387.9c1.7,0,3-1.4,3-3.2c0-1.8-1.3-3.2-3-3.2c-1.6,0-2.8,1.4-2.8,3.2
		C214.2,386.6,215.4,387.9,217.1,387.9z M229.8,382.8c0.4-1.4,1.8-2.4,3.5-2.4v1.3c-1.7-0.1-3.4,1.1-3.4,3.4v3.9h-1.4v-8.5h1.2
		L229.8,382.8L229.8,382.8z M238,380.3c2.9,0,4.4,2.5,4.1,5h-7.1c0.2,1.6,1.4,2.6,2.9,2.6c1,0,1.8-0.4,2.4-1.2l1,0.7
		c-0.8,1.1-1.9,1.7-3.4,1.7c-2.5,0-4.3-1.9-4.3-4.4C233.8,382.2,235.6,380.3,238,380.3z M238,381.5c-1.6,0-2.8,1.1-3,2.8h5.8
		C240.8,382.9,239.8,381.5,238,381.5z M243.6,384.7c0-2.6,1.8-4.4,4.3-4.4c1.7,0,3.1,0.9,3.7,2.3l-1.1,0.6c-0.5-0.9-1.4-1.6-2.6-1.6
		c-1.7,0-3,1.3-3,3.2c0,1.9,1.2,3.2,3,3.2c1.2,0,2.1-0.7,2.6-1.6l1.1,0.6c-0.6,1.3-2,2.3-3.7,2.3
		C245.4,389.2,243.6,387.3,243.6,384.7z M257,389.2c-2.5,0-4.3-1.9-4.3-4.5c0-2.6,1.8-4.5,4.3-4.5c2.5,0,4.3,1.9,4.3,4.5
		C261.3,387.3,259.5,389.2,257,389.2z M257,387.9c1.7,0,3-1.4,3-3.2c0-1.9-1.3-3.2-3-3.2c-1.7,0-3,1.4-3,3.2
		C254,386.6,255.3,387.9,257,387.9z M272.6,380.3c1.8,0,3,1.3,3,3.3v5.4h-1.4v-5.2c0-1.4-0.9-2.3-2.1-2.3c-1.2,0-2.1,0.9-2.1,2.3
		v5.2h-1.4v-5.2c0-1.4-0.9-2.3-2.1-2.3c-1.2,0-2.1,0.9-2.1,2.3v5.2h-1.4v-8.5h1.4v1.3c0.5-0.9,1.4-1.4,2.6-1.4
		c1.3,0,2.3,0.7,2.6,1.8C270.2,381,271.2,380.3,272.6,380.3z M287.3,380.3c1.8,0,3,1.3,3,3.3v5.4H289v-5.2c0-1.4-0.9-2.3-2.1-2.3
		c-1.2,0-2.1,0.9-2.1,2.3v5.2h-1.4v-5.2c0-1.4-0.9-2.3-2.1-2.3c-1.2,0-2.1,0.9-2.1,2.3v5.2h-1.4v-8.5h1.4v1.3
		c0.5-0.9,1.4-1.4,2.6-1.4c1.3,0,2.3,0.7,2.6,1.8C284.9,381,286,380.3,287.3,380.3z M296.3,380.3c2.9,0,4.4,2.5,4.1,5h-7.1
		c0.2,1.6,1.4,2.6,2.9,2.6c1,0,1.8-0.4,2.4-1.2l1,0.7c-0.8,1.1-1.9,1.7-3.4,1.7c-2.5,0-4.3-1.9-4.3-4.4
		C292,382.2,293.8,380.3,296.3,380.3z M296.2,381.5c-1.6,0-2.8,1.1-3,2.8h5.8C299,382.9,298.1,381.5,296.2,381.5z M306.6,380.3
		c2.1,0,3.4,1.4,3.4,3.9v4.8h-1.4l0-4.7c0-1.7-1-2.8-2.5-2.8c-1.5,0-2.5,1.1-2.5,2.8v4.7h-1.4v-8.5h1.4v1.5
		C304.2,380.9,305.3,380.3,306.6,380.3z M318.8,377.3h1.4V389h-1.4v-1.8c-0.7,1.2-1.8,1.9-3.3,1.9c-2.3,0-3.9-1.9-3.9-4.4
		c0-2.5,1.7-4.4,3.9-4.4c1.5,0,2.6,0.7,3.3,1.9V377.3z M315.8,387.9c1.7,0,3-1.4,3-3.2c0-1.8-1.3-3.2-3-3.2c-1.6,0-2.8,1.4-2.8,3.2
		C313,386.6,314.2,387.9,315.8,387.9z M325.8,380.3c2.3,0,3.8,1.2,3.8,3.8v4.9h-1.4v-0.9c-0.6,0.7-1.5,1-2.7,1c-2.1,0-3.5-1.2-3.5-3
		c0-1.7,1.5-3,3.5-3c1.1,0,2.1,0.4,2.7,1v-0.2c0-1.8-0.9-2.7-2.6-2.7c-1.1,0-2.2,0.4-2.8,0.9l-0.5-0.9
		C323,380.8,324.3,380.3,325.8,380.3z M325.8,388.2c1.4,0,2.4-0.8,2.4-2c0-1.2-1-2-2.4-2c-1.4,0-2.4,0.8-2.4,2
		C323.4,387.3,324.4,388.2,325.8,388.2z M335,387.8h0.8v1.2h-1.2c-1.8,0-2.5-0.9-2.5-2.5v-4.9h-1.2v-1.1h1.2v-1.9l1.4-0.3v2.2h2.1
		v1.1h-2.1v4.5C333.4,387.2,333.8,387.8,335,387.8z M338.1,379.1c-0.5,0-0.9-0.4-0.9-0.9c0-0.5,0.4-0.9,0.9-0.9
		c0.5,0,0.9,0.4,0.9,0.9C339,378.7,338.6,379.1,338.1,379.1z M337.4,389v-8.5h1.4v8.5H337.4z M344.9,389.2c-2.5,0-4.3-1.9-4.3-4.5
		c0-2.6,1.8-4.5,4.3-4.5c2.5,0,4.3,1.9,4.3,4.5C349.2,387.3,347.4,389.2,344.9,389.2z M344.9,387.9c1.7,0,3-1.4,3-3.2
		c0-1.9-1.3-3.2-3-3.2c-1.7,0-3,1.4-3,3.2C342,386.6,343.2,387.9,344.9,387.9z M355.4,380.3c2.1,0,3.4,1.4,3.4,3.9v4.8h-1.4l0-4.7
		c0-1.7-1-2.8-2.5-2.8c-1.5,0-2.5,1.1-2.5,2.8v4.7h-1.4v-8.5h1.4v1.5C353,380.9,354.1,380.3,355.4,380.3z M367,382.3l-1.1,0.5
		c-0.3-0.8-1.1-1.4-2.2-1.4c-1,0-1.8,0.4-1.8,1.2c0,0.9,1.1,1.2,2.4,1.5c1.7,0.4,3,1,3,2.6c0,1.7-1.7,2.4-3.4,2.4
		c-1.8,0-3.2-0.7-3.6-2.2l1.1-0.5c0.4,1.2,1.4,1.6,2.5,1.6c1,0,2-0.4,2-1.3c0-0.9-0.9-1.2-2.1-1.5c-1.3-0.3-3.3-0.8-3.3-2.5
		c0-1.7,1.6-2.4,3.2-2.4C365.5,380.3,366.6,381.1,367,382.3z"/>
</g>
<g>
	<path class="st3" d="M172.5,344h-17c-5.5,0-10-4.5-10-10s4.5-10,10-10h17c5.5,0,10,4.5,10,10S178,344,172.5,344z"/>
</g>
<g>
	<path class="st3" d="M218,308h-63c-5.5,0-10-4.5-10-10s4.5-10,10-10h63c5.5,0,10,4.5,10,10S223.5,308,218,308z"/>
</g>
<g>
	<path class="st3" d="M225.5,272h-70c-5.5,0-10-4.5-10-10c0-5.5,4.5-10,10-10h70c5.5,0,10,4.5,10,10C235.5,267.5,231,272,225.5,272z
		"/>
</g>
<g>
	<path class="st3" d="M217.5,236h-62c-5.5,0-10-4.5-10-10s4.5-10,10-10h62c5.5,0,10,4.5,10,10S223,236,217.5,236z"/>
</g>
<g>
	<path class="st3" d="M231,200h-76c-5.5,0-10-4.5-10-10s4.5-10,10-10h76c5.5,0,10,4.5,10,10S236.5,200,231,200z"/>
</g>
<g>
	<path class="st3" d="M210,164h-53c-5.5,0-10-4.5-10-10s4.5-10,10-10h53c5.5,0,10,4.5,10,10S215.5,164,210,164z"/>
</g>
<g>
	
		<linearGradient id="SVGID_1_" gradientUnits="userSpaceOnUse" x1="276.68" y1="188" x2="115.553" y2="188" gradientTransform="matrix(1 0 0 -1 0 522)">
		<stop  offset="0" style="stop-color:#FF2D00"/>
		<stop  offset="0.5071" style="stop-color:#C5C6CE"/>
		<stop  offset="1" style="stop-color:#F9F9FC"/>
	</linearGradient>
	<path class="st4" d="M277.5,344h-112c-5.5,0-10-4.5-10-10s4.5-10,10-10h112c5.5,0,10,4.5,10,10S283,344,277.5,344z"/>
</g>
<g>
	
		<linearGradient id="SVGID_00000109752215125078407610000003719060270067160964_" gradientUnits="userSpaceOnUse" x1="252.23" y1="224" x2="196.079" y2="224" gradientTransform="matrix(1 0 0 -1 0 522)">
		<stop  offset="0" style="stop-color:#FF2D00"/>
		<stop  offset="0.5071" style="stop-color:#C5C6CE"/>
		<stop  offset="1" style="stop-color:#F9F9FC"/>
	</linearGradient>
	<path style="fill:url(#SVGID_00000109752215125078407610000003719060270067160964_);" d="M246,308h-26c-5.5,0-10-4.5-10-10
		s4.5-10,10-10h26c5.5,0,10,4.5,10,10S251.5,308,246,308z"/>
</g>
<g>
	
		<linearGradient id="SVGID_00000013164081777118933210000007450140692352865452_" gradientUnits="userSpaceOnUse" x1="325.68" y1="260" x2="164.553" y2="260" gradientTransform="matrix(1 0 0 -1 0 522)">
		<stop  offset="0" style="stop-color:#FF2D00"/>
		<stop  offset="0.5071" style="stop-color:#C5C6CE"/>
		<stop  offset="1" style="stop-color:#F9F9FC"/>
	</linearGradient>
	<path style="fill:url(#SVGID_00000013164081777118933210000007450140692352865452_);" d="M326.5,272h-112c-5.5,0-10-4.5-10-10
		c0-5.5,4.5-10,10-10h112c5.5,0,10,4.5,10,10C336.5,267.5,332,272,326.5,272z"/>
</g>
<g>
	
		<linearGradient id="SVGID_00000059310598680109715360000018309338963152957585_" gradientUnits="userSpaceOnUse" x1="337.877" y1="296" x2="149.895" y2="296" gradientTransform="matrix(1 0 0 -1 0 522)">
		<stop  offset="0" style="stop-color:#FF2D00"/>
		<stop  offset="0.5071" style="stop-color:#C5C6CE"/>
		<stop  offset="1" style="stop-color:#F9F9FC"/>
	</linearGradient>
	<path style="fill:url(#SVGID_00000059310598680109715360000018309338963152957585_);" d="M340.5,236h-134c-5.5,0-10-4.5-10-10
		s4.5-10,10-10h134c5.5,0,10,4.5,10,10S346,236,340.5,236z"/>
</g>
<g>
	
		<linearGradient id="SVGID_00000016761782112897212270000011114735638345700798_" gradientUnits="userSpaceOnUse" x1="319.246" y1="332" x2="173.987" y2="332" gradientTransform="matrix(1 0 0 -1 0 522)">
		<stop  offset="0" style="stop-color:#FF2D00"/>
		<stop  offset="0.5071" style="stop-color:#C5C6CE"/>
		<stop  offset="1" style="stop-color:#F9F9FC"/>
	</linearGradient>
	<path style="fill:url(#SVGID_00000016761782112897212270000011114735638345700798_);" d="M319,200h-99c-5.5,0-10-4.5-10-10
		s4.5-10,10-10h99c5.5,0,10,4.5,10,10S324.5,200,319,200z"/>
</g>
<g>
	
		<linearGradient id="SVGID_00000160905646241516596930000013206638114366255255_" gradientUnits="userSpaceOnUse" x1="264.016" y1="368" x2="174.908" y2="368" gradientTransform="matrix(1 0 0 -1 0 522)">
		<stop  offset="0" style="stop-color:#FF2D00"/>
		<stop  offset="0.5071" style="stop-color:#C5C6CE"/>
		<stop  offset="1" style="stop-color:#F9F9FC"/>
	</linearGradient>
	<path style="fill:url(#SVGID_00000160905646241516596930000013206638114366255255_);" d="M260,164h-53c-5.5,0-10-4.5-10-10
		s4.5-10,10-10h53c5.5,0,10,4.5,10,10S265.5,164,260,164z"/>
</g>
<g>
	<defs>
		<rect id="SVGID_00000169527164196283029810000002914444620637484712_" x="361" y="220" width="14" height="13"/>
	</defs>
	<clipPath id="SVGID_00000057134097360410379550000018361696406504336272_">
		<use xlink:href="#SVGID_00000169527164196283029810000002914444620637484712_"  style="overflow:visible;"/>
	</clipPath>
	<g style="clip-path:url(#SVGID_00000057134097360410379550000018361696406504336272_);">
		<g>
			<path class="st11" d="M368,221.5c0.4,0,0.8,0.3,1.1,0.8l4.2,7.3c0.6,1,0.1,1.9-1,1.9h-8.5c-1.2,0-1.6-0.9-1-1.9l4.2-7.3
				C367.2,221.8,367.6,221.5,368,221.5 M368,220c-0.9,0-1.8,0.5-2.3,1.5l-4.2,7.3c-0.6,1-0.6,2-0.2,2.9c0.4,0.9,1.3,1.3,2.4,1.3h8.5
				c1.1,0,2-0.5,2.4-1.3c0.5-0.8,0.4-1.9-0.2-2.9l-4.2-7.3C369.8,220.6,368.9,220,368,220L368,220z"/>
		</g>
		<g>
			<path class="st11" d="M368,230.3c0.5,0,0.9-0.4,0.9-1c0-0.5-0.4-1-0.9-1c-0.5,0-0.9,0.4-0.9,1C367.1,229.8,367.5,230.3,368,230.3
				z"/>
		</g>
		<g>
			<path class="st11" d="M369.1,224.8c0-0.6-0.5-1.1-1.1-1.1c-0.6,0-1.1,0.5-1.1,1.1c0,0.1,0,0.3,0.1,0.4c0.4,1,1,2.5,1,2.5
				s0.6-1.5,1-2.5C369,225.1,369,225,369.1,224.8L369.1,224.8z"/>
		</g>
	</g>
</g>
<g>
	<defs>
		<rect id="SVGID_00000148663410326702605990000011089101217803756470_" x="347" y="256" width="14" height="13"/>
	</defs>
	<clipPath id="SVGID_00000025443143248112253300000015168687525046910099_">
		<use xlink:href="#SVGID_00000148663410326702605990000011089101217803756470_"  style="overflow:visible;"/>
	</clipPath>
	<g style="clip-path:url(#SVGID_00000025443143248112253300000015168687525046910099_);">
		<g>
			<path class="st11" d="M354,257.5c0.4,0,0.8,0.3,1.1,0.8l4.2,7.3c0.6,1,0.1,1.9-1,1.9h-8.5c-1.2,0-1.6-0.9-1-1.9l4.2-7.3
				C353.2,257.8,353.6,257.5,354,257.5 M354,256c-0.9,0-1.8,0.5-2.3,1.5l-4.2,7.3c-0.6,1-0.6,2-0.2,2.9c0.4,0.9,1.3,1.3,2.4,1.3h8.5
				c1.1,0,2-0.5,2.4-1.3c0.5-0.8,0.4-1.9-0.2-2.9l-4.2-7.3C355.8,256.6,354.9,256,354,256L354,256z"/>
		</g>
		<g>
			<path class="st11" d="M354,266.3c0.5,0,0.9-0.4,0.9-1s-0.4-1-0.9-1c-0.5,0-0.9,0.4-0.9,1S353.5,266.3,354,266.3z"/>
		</g>
		<g>
			<path class="st11" d="M355.1,260.8c0-0.6-0.5-1.1-1.1-1.1c-0.6,0-1.1,0.5-1.1,1.1c0,0.1,0,0.3,0.1,0.4c0.4,1,1,2.5,1,2.5
				s0.6-1.5,1-2.5C355,261.1,355,261,355.1,260.8L355.1,260.8z"/>
		</g>
	</g>
</g>
<g>
	<defs>
		<rect id="SVGID_00000164508350023180969000000010041424800032548755_" x="297.5" y="327" width="14" height="13"/>
	</defs>
	<clipPath id="SVGID_00000049942606097583912900000013947266959169958319_">
		<use xlink:href="#SVGID_00000164508350023180969000000010041424800032548755_"  style="overflow:visible;"/>
	</clipPath>
	<g style="clip-path:url(#SVGID_00000049942606097583912900000013947266959169958319_);">
		<g>
			<path class="st11" d="M304.5,328.5c0.4,0,0.8,0.3,1.1,0.8l4.2,7.3c0.6,1,0.1,1.9-1,1.9h-8.5c-1.2,0-1.6-0.9-1-1.9l4.2-7.3
				C303.7,328.8,304.1,328.5,304.5,328.5 M304.5,327c-0.9,0-1.8,0.5-2.3,1.5l-4.2,7.3c-0.6,1-0.6,2-0.2,2.9c0.4,0.9,1.3,1.3,2.4,1.3
				h8.5c1.1,0,2-0.5,2.4-1.3c0.5-0.8,0.4-1.9-0.2-2.9l-4.2-7.3C306.3,327.6,305.4,327,304.5,327L304.5,327z"/>
		</g>
		<g>
			<path class="st11" d="M304.5,337.3c0.5,0,0.9-0.4,0.9-1s-0.4-1-0.9-1c-0.5,0-0.9,0.4-0.9,1S304,337.3,304.5,337.3z"/>
		</g>
		<g>
			<path class="st11" d="M305.6,331.8c0-0.6-0.5-1.1-1.1-1.1c-0.6,0-1.1,0.5-1.1,1.1c0,0.1,0,0.3,0.1,0.4c0.4,1,1,2.5,1,2.5
				s0.6-1.5,1-2.5C305.5,332.1,305.5,332,305.6,331.8L305.6,331.8z"/>
		</g>
	</g>
</g>
<g>
	<path class="st14" d="M284.6,154.4c-0.4,0.4-1,0.4-1.4,0l-1.9-1.7c-0.4-0.4-1-0.4-1.4,0l-0.2,0.1c-0.4,0.4-0.4,1.1,0,1.5l3.4,3.1
		c0.4,0.4,1,0.4,1.4,0l6.7-6.1c0.4-0.4,0.4-1.1,0-1.5l-0.2-0.1c-0.4-0.4-1-0.4-1.4,0L284.6,154.4z"/>
</g>
<g>
	<path class="st14" d="M343.6,190.4c-0.4,0.4-1,0.4-1.4,0l-1.9-1.7c-0.4-0.4-1-0.4-1.4,0l-0.2,0.1c-0.4,0.4-0.4,1.1,0,1.5l3.4,3.1
		c0.4,0.4,1,0.4,1.4,0l6.7-6.1c0.4-0.4,0.4-1.1,0-1.5l-0.2-0.1c-0.4-0.4-1-0.4-1.4,0L343.6,190.4z"/>
</g>
<g>
	<path class="st14" d="M270.6,298.4c-0.4,0.4-1,0.4-1.4,0l-1.9-1.7c-0.4-0.4-1-0.4-1.4,0l-0.2,0.1c-0.4,0.4-0.4,1.1,0,1.5l3.4,3.1
		c0.4,0.4,1,0.4,1.4,0l6.7-6.1c0.4-0.4,0.4-1.1,0-1.5l-0.2-0.1c-0.4-0.4-1-0.4-1.4,0L270.6,298.4z"/>
</g>
</svg>
